External Loads File
version=1
nRows=78
nColumns=13
Range=5.000000e-03-10 seconds
endheader
time 	forceRightX 	forceRightY 	forceRightZ 	pointRightX 	pointRightY 	pointRightZ 	forceLeftX 	forceLeftY 	forceLeftZ 	pointLeftX 	pointLeftY 	pointLeftZ 		
5.005000 -35.128312 228.978427 -0.000000 0.378985 0.482845 -0.125554 130.219486 86.360813 -0.000000 0.218779 0.171098 -0.363778
5.010000 -33.490951 253.647251 -0.000000 0.385398 0.477357 -0.125425 125.574421 69.134276 -0.000000 0.210854 0.177742 -0.363606
5.015000 -32.490387 278.959536 -0.000000 0.391650 0.471031 -0.125126 121.023867 54.463836 -0.000000 0.203308 0.184154 -0.363355
5.020000 -32.487600 303.739201 -0.000000 0.397690 0.464152 -0.125037 116.775415 42.340282 -0.000000 0.196197 0.190748 -0.363118
5.025000 -33.440672 326.851296 -0.000000 0.403537 0.456616 -0.125126 113.042614 32.555691 -0.000000 0.189464 0.197939 -0.362931
5.030000 -35.617705 347.307237 -0.000000 0.409508 0.448680 -0.124773 109.951359 24.972367 -0.000000 0.183223 0.205600 -0.362758
5.035000 -39.086269 364.481820 -0.000000 0.415538 0.440158 -0.125359 107.623200 19.310793 -0.000000 0.177374 0.213627 -0.362651
5.040000 -44.369489 378.124284 -0.000000 0.420891 0.431020 -0.125868 106.111378 15.392018 -0.000000 0.172056 0.222145 -0.362637
5.045000 -50.751345 388.530139 -0.000000 0.426579 0.421437 -0.125984 105.473985 12.702433 -0.000000 0.167253 0.231019 -0.362783
5.050000 -59.412049 396.052797 -0.000000 0.430740 0.411591 -0.125893 105.629554 11.318967 -0.000000 0.162965 0.240214 -0.363163
5.055000 -69.782531 401.406496 -0.000000 0.433877 0.401743 -0.126537 106.486068 10.912149 -0.000000 0.159309 0.249729 -0.363295
5.060000 -79.557243 405.756589 -0.000000 0.438134 0.391383 -0.125903 107.951035 10.730585 -0.000000 0.156237 0.259489 -0.363439
5.065000 -89.698395 409.788672 -0.000000 0.441573 0.380761 -0.125695 109.833692 10.857150 -0.000000 0.153686 0.269551 -0.363503
5.070000 -99.872796 414.378552 -0.000000 0.444581 0.369986 -0.125611 111.953863 11.010422 -0.000000 0.151700 0.279786 -0.363549
5.075000 -109.878546 420.294947 -0.000000 0.446733 0.359159 -0.125585 114.103471 10.963361 -0.000000 0.150283 0.290265 -0.363605
5.080000 -119.065957 428.306259 -0.000000 0.448260 0.348053 -0.125594 116.076701 10.410909 -0.000000 0.149483 0.300852 -0.363674
5.085000 -127.286351 438.911338 -0.000000 0.449084 0.336887 -0.125558 117.648702 9.262049 -0.000000 0.149293 0.311561 -0.363628
5.090000 -134.217680 452.465702 -0.000000 0.449297 0.325705 -0.125585 118.619724 7.474271 -0.000000 0.149672 0.322344 -0.363547
5.095000 -139.434837 469.114209 -0.000000 0.448980 0.314530 -0.125295 118.846694 5.045416 -0.000000 0.150701 0.333214 -0.363478
5.100000 -142.871090 488.605727 -0.000000 0.448134 0.303370 -0.125808 118.242889 2.096929 -0.000000 0.151847 0.344006 -0.362525
5.105000 -142.623303 510.921655 -0.000000 0.446964 0.291386 -0.124139 116.765567 -1.677411 -0.000000 0.154161 0.354709 -0.362400
5.110000 -140.538944 534.722542 -0.000000 0.444259 0.280260 -0.125743 114.383917 -5.713778 -0.000000 0.157088 0.365352 -0.362339
5.115000 -136.362319 559.162195 -0.000000 0.441545 0.269698 -0.126217 111.101376 -10.021693 -0.000000 0.160673 0.375969 -0.362341
5.120000 -129.731524 583.326927 -0.000000 0.438119 0.259298 -0.126262 106.930629 -14.657478 -0.000000 0.164911 0.386052 -0.362431
5.125000 -120.034473 606.292246 -0.000000 0.433997 0.249271 -0.126511 101.876138 -19.730089 -0.000000 0.169664 0.396107 -0.362330
5.130000 -107.274897 626.983681 -0.000000 0.429741 0.239026 -0.126138 95.936913 -25.219890 -0.000000 0.175057 0.405782 -0.362376
5.135000 -92.940740 644.160593 -0.000000 0.424913 0.229612 -0.125856 89.159434 -30.863757 -0.000000 0.181070 0.415081 -0.362570
5.140000 -76.379943 657.080947 -0.000000 0.419168 0.220443 -0.125844 81.499187 -36.693234 -0.000000 0.187064 0.424092 -0.362176
5.145000 -58.726878 664.909968 -0.000000 0.413393 0.211763 -0.125869 73.010603 -42.448463 -0.000000 0.193808 0.432644 -0.362309
5.150000 -38.901396 667.232609 -0.000000 0.407036 0.203617 -0.125714 63.666735 -48.094905 -0.000000 0.201484 0.440921 -0.362757
5.155000 -18.910923 663.564329 -0.000000 0.400439 0.195907 -0.125720 53.695859 -53.258755 -0.000000 0.209439 0.448690 -0.362498
5.160000 0.820403 653.782251 -0.000000 0.393431 0.188641 -0.125773 43.247706 -57.781889 -0.000000 0.217409 0.456031 -0.362672
5.165000 20.245741 637.888681 -0.000000 0.386028 0.181783 -0.125715 32.422014 -61.543934 -0.000000 0.225591 0.462858 -0.362548
5.170000 39.385865 615.961243 -0.000000 0.378299 0.175645 -0.125690 21.314810 -64.434719 -0.000000 0.234316 0.469282 -0.362589
5.175000 57.437034 588.292473 -0.000000 0.370170 0.170112 -0.125575 10.147159 -66.356141 -0.000000 0.243250 0.474977 -0.362483
5.180000 74.326058 555.416414 -0.000000 0.361763 0.165092 -0.125672 -0.883607 -67.285026 -0.000000 0.252491 0.480091 -0.362897
5.185000 89.345098 518.254143 -0.000000 0.353003 0.160889 -0.125995 -11.476733 -67.223201 -0.000000 0.261781 0.484616 -0.363132
5.190000 102.309531 477.941017 -0.000000 0.344037 0.157208 -0.125917 -21.399297 -66.226288 -0.000000 0.271171 0.488471 -0.363330
5.195000 112.753406 435.791212 -0.000000 0.335081 0.154107 -0.125551 -30.422520 -64.402523 -0.000000 0.280598 0.491622 -0.363572
5.200000 120.797461 392.930832 -0.000000 0.325963 0.151778 -0.125333 -38.464395 -61.848464 -0.000000 0.289923 0.494205 -0.363807
5.205000 127.055856 350.070164 -0.000000 0.316640 0.149991 -0.125283 -45.612097 -58.563873 -0.000000 0.299589 0.495991 -0.364235
5.210000 130.593130 308.171398 -0.000000 0.307342 0.149080 -0.125255 -51.773520 -54.664203 -0.000000 0.308847 0.497135 -0.364561
5.215000 131.753490 267.597769 -0.000000 0.298190 0.148725 -0.125304 -57.114982 -50.053209 -0.000000 0.317901 0.497562 -0.364773
5.220000 130.784220 228.616594 -0.000000 0.289067 0.149098 -0.125152 -61.849936 -44.522446 -0.000000 0.326661 0.497131 -0.365464
5.225000 127.941465 191.498827 -0.000000 0.280103 0.150057 -0.125411 -66.226576 -37.756628 -0.000000 0.335308 0.496087 -0.365643
5.230000 123.450625 156.636789 -0.000000 0.271149 0.151656 -0.125931 -70.472784 -29.398795 -0.000000 0.343511 0.494348 -0.365927
5.235000 117.795531 124.338383 -0.000000 0.262114 0.153806 -0.126096 -74.830065 -18.978868 -0.000000 0.351414 0.491904 -0.366369
5.240000 111.278261 95.092378 -0.000000 0.253266 0.156588 -0.125864 -79.459249 -6.124057 -0.000000 0.358956 0.488679 -0.366647
5.245000 104.380580 69.145715 -0.000000 0.244574 0.159987 -0.125678 -84.493029 9.601488 -0.000000 0.366236 0.484511 -0.367131
5.250000 97.411908 46.743972 -0.000000 0.236022 0.164008 -0.125717 -90.024514 28.417171 -0.000000 0.373038 0.479756 -0.367226
5.255000 90.681787 27.872035 -0.000000 0.227813 0.168651 -0.125688 -96.150351 50.412701 -0.000000 0.379562 0.474329 -0.367569
5.260000 84.368143 12.436745 -0.000000 0.219949 0.173853 -0.125491 -102.990183 75.354617 -0.000000 0.385694 0.468186 -0.367954
5.265000 78.553452 0.231035 -0.000000 0.212330 0.179566 -0.125426 -110.660964 102.733719 -0.000000 0.391499 0.461500 -0.368270
5.270000 73.221237 -9.034299 -0.000000 0.205129 0.185864 -0.125341 -119.222186 131.810060 -0.000000 0.397116 0.454050 -0.368700
5.275000 68.285547 -15.669145 -0.000000 0.198387 0.192683 -0.125225 -128.720335 161.623003 -0.000000 0.402608 0.445956 -0.369092
5.280000 63.632147 -20.003934 -0.000000 0.192221 0.199903 -0.125009 -139.234516 191.118443 -0.000000 0.408126 0.437513 -0.369322
5.285000 59.068412 -22.579726 -0.000000 0.185760 0.207643 -0.125678 -150.164562 219.804157 -0.000000 0.413380 0.428332 -0.369554
5.290000 54.555466 -23.502450 -0.000000 0.180395 0.215701 -0.125696 -162.258645 246.420167 -0.000000 0.418512 0.419023 -0.369536
5.295000 49.949455 -23.192578 -0.000000 0.175566 0.224211 -0.125667 -175.025908 270.825735 -0.000000 0.423173 0.409383 -0.369796
5.300000 45.166165 -21.895417 -0.000000 0.171316 0.233040 -0.125641 -187.990066 293.091593 -0.000000 0.427870 0.399516 -0.369654
5.305000 40.203437 -19.705838 -0.000000 0.167568 0.242276 -0.125708 -200.771199 313.454705 -0.000000 0.432151 0.389374 -0.369790
5.310000 35.163922 -16.592467 -0.000000 0.164433 0.251712 -0.125706 -213.359849 332.112030 -0.000000 0.435869 0.379162 -0.369739
5.315000 30.234423 -12.585014 -0.000000 0.161871 0.261432 -0.125787 -225.021788 349.884056 -0.000000 0.439126 0.368765 -0.369529
5.320000 25.771921 -7.702523 -0.000000 0.159956 0.271242 -0.125767 -235.689726 367.282118 -0.000000 0.441824 0.358254 -0.369360
5.325000 22.125326 -2.166188 -0.000000 0.158541 0.281053 -0.125811 -244.935053 385.121613 -0.000000 0.443890 0.347498 -0.369300
5.330000 19.462373 3.597532 -0.000000 0.157818 0.291366 -0.125870 -251.855184 404.502382 -0.000000 0.445454 0.336562 -0.369276
5.335000 17.634349 9.137734 -0.000000 0.157931 0.301629 -0.125704 -256.990912 425.473613 -0.000000 0.446425 0.325563 -0.369208
5.340000 16.235046 13.976437 -0.000000 0.158341 0.312310 -0.125795 -259.334694 448.806825 -0.000000 0.446725 0.314593 -0.369179
5.345000 14.741477 17.856242 -0.000000 0.159353 0.322964 -0.125876 -259.105549 474.255973 -0.000000 0.446518 0.303580 -0.368896
5.350000 12.694058 20.686003 -0.000000 0.160925 0.333715 -0.125845 -255.939577 501.674114 -0.000000 0.445559 0.292645 -0.369004
5.355000 9.747126 22.549681 -0.000000 0.162991 0.344478 -0.125754 -249.831056 530.495850 -0.000000 0.443982 0.281853 -0.369001
5.360000 5.767055 23.641959 -0.000000 0.166292 0.355402 -0.126350 -239.683067 560.459607 -0.000000 0.441872 0.271082 -0.368995
5.365000 0.696990 24.266399 -0.000000 0.169738 0.366040 -0.126588 -227.027400 589.980637 -0.000000 0.439099 0.260605 -0.368864
5.370000 -5.266357 24.693270 -0.000000 0.173771 0.376520 -0.126753 -211.481561 618.334367 -0.000000 0.435751 0.250462 -0.368710
5.375000 -11.832179 25.174678 -0.000000 0.178062 0.386901 -0.126906 -193.060860 644.626391 -0.000000 0.431882 0.240494 -0.368594
5.380000 -18.639095 25.962265 -0.000000 0.183443 0.397280 -0.127129 -170.940371 668.214454 -0.000000 0.427314 0.230878 -0.368646
5.385000 -25.443100 27.227119 -0.000000 0.189120 0.407339 -0.127055 -147.096521 687.724221 -0.000000 0.422294 0.221633 -0.368516
5.390000 -31.972771 29.141421 -0.000000 0.195039 0.417038 -0.127209 -122.227502 702.332711 -0.000000 0.416821 0.212852 -0.368413
